<svg xmlns="http://www.w3.org/2000/svg" viewBox="0 0 32 32">
  <defs>
    <linearGradient id="bg" x1="0%" y1="0%" x2="100%" y2="100%">
      <stop offset="0%" stop-color="#3B82F6"/>
      <stop offset="100%" stop-color="#7C3AED"/>
    </linearGradient>
  </defs>

  <!-- Shield -->
  <path d="M16 4 C16 4 6 7 6 13 L6 21 C6 26 16 29 16 29 C16 29 26 26 26 21 L26 13 C26 7 16 4 16 4 Z" fill="url(#bg)"/>

  <!-- Stylized B -->
  <g fill="#FFFFFF">
    <rect x="10" y="10" width="3" height="13" rx="1"/>
    <path d="M13 10 L16 10 C19 10 21 11 21 13 C21 15 19 16 16 16 L13 16" fill="none" stroke="#FFFFFF" stroke-width="2.5" stroke-linecap="round"/>
    <path d="M13 16 L16 16 C19 16 21 17 21 19 C21 21 19 22 16 22 L13 22" fill="none" stroke="#FFFFFF" stroke-width="2.5" stroke-linecap="round"/>
    <circle cx="18" cy="13" r="1.5" fill="#FFFFFF"/>
  </g>

  <!-- Signal wave -->
  <path d="M22 8 Q24 6 26 8" fill="none" stroke="#FFFFFF" stroke-width="1" stroke-linecap="round" opacity="0.7"/>
</svg>