<svg xmlns="http://www.w3.org/2000/svg" width="0" height="0" aria-hidden="true" focusable="false">
  <!--
    Minimal, professional icon set (stroke-based) for CSP-safe UI.
    Usage:
      <svg class="icon" aria-hidden="true"><use href="/assets/icons.svg#i-lock"/></svg>
  -->

  <symbol id="i-logo" viewBox="0 0 24 24">
    <path fill="none" stroke="currentColor" stroke-width="1.8" stroke-linecap="round" stroke-linejoin="round"
      d="M7.2 16.6h9.6M6.2 10.6l1.2-2.4A3.5 3.5 0 0 1 10.6 6h2.8a3.5 3.5 0 0 1 3.2 2.2l1.2 2.4M7.4 10.6h9.2M6.5 10.6h11c1.1 0 2 .9 2 2v2.2c0 1.2-1 2.2-2.2 2.2H6.7c-1.2 0-2.2-1-2.2-2.2v-2.2c0-1.1.9-2 2-2Z"/>
    <path fill="none" stroke="currentColor" stroke-width="1.8" stroke-linecap="round" stroke-linejoin="round"
      d="M8.2 14.1h.01M15.8 14.1h.01"/>
  </symbol>

  <symbol id="i-user" viewBox="0 0 24 24">
    <path fill="none" stroke="currentColor" stroke-width="1.8" stroke-linecap="round" stroke-linejoin="round"
      d="M20 21a8 8 0 0 0-16 0"/>
    <path fill="none" stroke="currentColor" stroke-width="1.8" stroke-linecap="round" stroke-linejoin="round"
      d="M12 12a4.5 4.5 0 1 0 0-9 4.5 4.5 0 0 0 0 9Z"/>
  </symbol>

  <symbol id="i-mail" viewBox="0 0 24 24">
    <path fill="none" stroke="currentColor" stroke-width="1.8" stroke-linecap="round" stroke-linejoin="round"
      d="M4.5 7.5h15A2 2 0 0 1 21.5 9.5v9A2 2 0 0 1 19.5 20.5h-15a2 2 0 0 1-2-2v-9a2 2 0 0 1 2-2Z"/>
    <path fill="none" stroke="currentColor" stroke-width="1.8" stroke-linecap="round" stroke-linejoin="round"
      d="M21.5 9.5 12 14.4 2.5 9.5"/>
  </symbol>

  <symbol id="i-lock" viewBox="0 0 24 24">
    <path fill="none" stroke="currentColor" stroke-width="1.8" stroke-linecap="round" stroke-linejoin="round"
      d="M7.5 10.5V8.2A4.5 4.5 0 0 1 12 3.7a4.5 4.5 0 0 1 4.5 4.5v2.3"/>
    <path fill="none" stroke="currentColor" stroke-width="1.8" stroke-linecap="round" stroke-linejoin="round"
      d="M6.8 10.5h10.4a2 2 0 0 1 2 2v6.8a2 2 0 0 1-2 2H6.8a2 2 0 0 1-2-2v-6.8a2 2 0 0 1 2-2Z"/>
  </symbol>

  <symbol id="i-shield" viewBox="0 0 24 24">
    <path fill="none" stroke="currentColor" stroke-width="1.8" stroke-linecap="round" stroke-linejoin="round"
      d="M12 2.7 20 6.3v6.2c0 5.1-3.2 8.7-8 10.8-4.8-2.1-8-5.7-8-10.8V6.3l8-3.6Z"/>
    <path fill="none" stroke="currentColor" stroke-width="1.8" stroke-linecap="round" stroke-linejoin="round"
      d="M9.2 12.2l1.8 1.8 3.8-4.1"/>
  </symbol>

  <symbol id="i-link" viewBox="0 0 24 24">
    <path fill="none" stroke="currentColor" stroke-width="1.8" stroke-linecap="round" stroke-linejoin="round"
      d="M10.2 13.8a4 4 0 0 1 0-5.6l2-2a4 4 0 0 1 5.6 5.6l-1.2 1.2"/>
    <path fill="none" stroke="currentColor" stroke-width="1.8" stroke-linecap="round" stroke-linejoin="round"
      d="M13.8 10.2a4 4 0 0 1 0 5.6l-2 2a4 4 0 0 1-5.6-5.6l1.2-1.2"/>
  </symbol>

  <symbol id="i-key" viewBox="0 0 24 24">
    <path fill="none" stroke="currentColor" stroke-width="1.8" stroke-linecap="round" stroke-linejoin="round"
      d="M7.5 14.5a5 5 0 1 1 4.2-2.3L21 12v3h-2v2h-2v2h-3l-1.6-1.6"/>
    <path fill="none" stroke="currentColor" stroke-width="1.8" stroke-linecap="round" stroke-linejoin="round"
      d="M7.5 12a1.2 1.2 0 1 0 0-2.4 1.2 1.2 0 0 0 0 2.4Z"/>
  </symbol>

  <symbol id="i-rotate" viewBox="0 0 24 24">
    <path fill="none" stroke="currentColor" stroke-width="1.8" stroke-linecap="round" stroke-linejoin="round"
      d="M20 6.5v5h-5"/>
    <path fill="none" stroke="currentColor" stroke-width="1.8" stroke-linecap="round" stroke-linejoin="round"
      d="M4.5 17.5A8.5 8.5 0 0 0 20 11.5M19.5 6.5A8.5 8.5 0 0 0 4 12.5"/>
  </symbol>

  <symbol id="i-trash" viewBox="0 0 24 24">
    <path fill="none" stroke="currentColor" stroke-width="1.8" stroke-linecap="round" stroke-linejoin="round"
      d="M9 6h6"/>
    <path fill="none" stroke="currentColor" stroke-width="1.8" stroke-linecap="round" stroke-linejoin="round"
      d="M5.5 7.5h13"/>
    <path fill="none" stroke="currentColor" stroke-width="1.8" stroke-linecap="round" stroke-linejoin="round"
      d="M8 7.5l.7 14h6.6l.7-14"/>
    <path fill="none" stroke="currentColor" stroke-width="1.8" stroke-linecap="round" stroke-linejoin="round"
      d="M10 10.5v7M14 10.5v7"/>
  </symbol>

  <symbol id="i-check" viewBox="0 0 24 24">
    <path fill="none" stroke="currentColor" stroke-width="1.8" stroke-linecap="round" stroke-linejoin="round"
      d="M20 6.8 10.2 17 4 10.8"/>
  </symbol>

  <symbol id="i-alert" viewBox="0 0 24 24">
    <path fill="none" stroke="currentColor" stroke-width="1.8" stroke-linecap="round" stroke-linejoin="round"
      d="M12 9v4.2"/>
    <path fill="none" stroke="currentColor" stroke-width="1.8" stroke-linecap="round" stroke-linejoin="round"
      d="M12 17.2h.01"/>
    <path fill="none" stroke="currentColor" stroke-width="1.8" stroke-linecap="round" stroke-linejoin="round"
      d="M10.1 4.6h3.8l8 14-1.9 3.2H4l-1.9-3.2 8-14Z"/>
  </symbol>

  <symbol id="i-arrow-left" viewBox="0 0 24 24">
    <path fill="none" stroke="currentColor" stroke-width="1.8" stroke-linecap="round" stroke-linejoin="round"
      d="M14.5 6 8.5 12l6 6"/>
  </symbol>

  <symbol id="i-plus" viewBox="0 0 24 24">
    <path fill="none" stroke="currentColor" stroke-width="1.8" stroke-linecap="round" stroke-linejoin="round"
      d="M12 5v14M5 12h14"/>
  </symbol>

  <symbol id="i-copy" viewBox="0 0 24 24">
    <path fill="none" stroke="currentColor" stroke-width="1.8" stroke-linecap="round" stroke-linejoin="round"
      d="M9 9h10v10H9z"/>
    <path fill="none" stroke="currentColor" stroke-width="1.8" stroke-linecap="round" stroke-linejoin="round"
      d="M5 15H4.8A1.8 1.8 0 0 1 3 13.2V4.8A1.8 1.8 0 0 1 4.8 3h8.4A1.8 1.8 0 0 1 15 4.8V5"/>
  </symbol>

  <symbol id="i-exit" viewBox="0 0 24 24">
    <path fill="none" stroke="currentColor" stroke-width="1.8" stroke-linecap="round" stroke-linejoin="round"
      d="M10 7V6.4A2.4 2.4 0 0 1 12.4 4H18a2 2 0 0 1 2 2v12a2 2 0 0 1-2 2h-5.6A2.4 2.4 0 0 1 10 19.6V19"/>
    <path fill="none" stroke="currentColor" stroke-width="1.8" stroke-linecap="round" stroke-linejoin="round"
      d="M4 12h9"/>
    <path fill="none" stroke="currentColor" stroke-width="1.8" stroke-linecap="round" stroke-linejoin="round"
      d="M7 9l-3 3 3 3"/>
  </symbol>

  <symbol id="i-moon" viewBox="0 0 24 24">
    <path fill="none" stroke="currentColor" stroke-width="1.8" stroke-linecap="round" stroke-linejoin="round"
      d="M20.5 14.6a7.6 7.6 0 0 1-9.6-9.6 8.5 8.5 0 1 0 9.6 9.6Z"/>
  </symbol>

  <symbol id="i-sliders" viewBox="0 0 24 24">
    <path fill="none" stroke="currentColor" stroke-width="1.8" stroke-linecap="round" stroke-linejoin="round"
      d="M5 6h14M7 6v10M5 16h14M17 16V8M5 10h8M11 10v8"/>
  </symbol>

  <symbol id="i-list" viewBox="0 0 24 24">
    <path fill="none" stroke="currentColor" stroke-width="1.8" stroke-linecap="round" stroke-linejoin="round"
      d="M8 6h13M8 12h13M8 18h13"/>
    <path fill="none" stroke="currentColor" stroke-width="1.8" stroke-linecap="round" stroke-linejoin="round"
      d="M4.5 6h.01M4.5 12h.01M4.5 18h.01"/>
  </symbol>

  <symbol id="i-x" viewBox="0 0 24 24">
    <path fill="none" stroke="currentColor" stroke-width="1.8" stroke-linecap="round" stroke-linejoin="round"
      d="M7 7l10 10M17 7 7 17"/>
  </symbol>
</svg>

